HIERARCHY
ROOT Hips
{
  OFFSET -55.1146 27.5367 -73.252
  CHANNELS 6 Xposition Yposition Zposition Zrotation Xrotation Yrotation
  JOINT Spine
  {
    OFFSET 0 8 0
    CHANNELS 6 Xposition Yposition Zposition Zrotation Xrotation Yrotation
    JOINT Spine1
    {
      OFFSET 0 8 0
      CHANNELS 6 Xposition Yposition Zposition Zrotation Xrotation Yrotation
      JOINT Spine2
      {
        OFFSET 0 8 0
        CHANNELS 6 Xposition Yposition Zposition Zrotation Xrotation Yrotation
        JOINT Spine3
        {
          OFFSET 0 8 0
          CHANNELS 6 Xposition Yposition Zposition Zrotation Xrotation Yrotation
          JOINT Neck
          {
            OFFSET 2.68351e-05 17.0002 -1.44983e-05
            CHANNELS 6 Xposition Yposition Zposition Zrotation Xrotation Yrotation
            JOINT Head
            {
              OFFSET 1.33731e-05 10.8001 0
              CHANNELS 6 Xposition Yposition Zposition Zrotation Xrotation Yrotation
              End Site
              {
                OFFSET 0 20.25 0
              }
            }
          }
          JOINT LeftShoulder
          {
            OFFSET 5 17 0
            CHANNELS 6 Xposition Yposition Zposition Zrotation Xrotation Yrotation
            JOINT LeftShoulder2
            {
              OFFSET 6.45 0 0
              CHANNELS 6 Xposition Yposition Zposition Zrotation Xrotation Yrotation
              JOINT LeftArm
              {
                OFFSET 6.45001 0.000398986 -0.000252389
                CHANNELS 6 Xposition Yposition Zposition Zrotation Xrotation Yrotation
                JOINT LeftForeArm
                {
                  OFFSET 0 -32.4 -1.99999
                  CHANNELS 6 Xposition Yposition Zposition Zrotation Xrotation Yrotation
                  JOINT LeftHand
                  {
                    OFFSET 0 -25.65 2
                    CHANNELS 6 Xposition Yposition Zposition Zrotation Xrotation Yrotation
                    JOINT LeftHandThumb1
                    {
                      OFFSET -0.499989 -1.50001 2.65
                      CHANNELS 6 Xposition Yposition Zposition Zrotation Xrotation Yrotation
                      JOINT LeftHandThumb2
                      {
                        OFFSET -1.23803e-05 -3.79999 3.7
                        CHANNELS 6 Xposition Yposition Zposition Zrotation Xrotation Yrotation
                        JOINT LeftHandThumb3
                        {
                          OFFSET 0 -3 2.7
                          CHANNELS 6 Xposition Yposition Zposition Zrotation Xrotation Yrotation
                          End Site
                          {
                            OFFSET 0 -2.3 1.8
                          }
                        }
                      }
                    }
                    JOINT LeftHandIndex
                    {
                      OFFSET 0 -1.9 1.6
                      CHANNELS 6 Xposition Yposition Zposition Zrotation Xrotation Yrotation
                      JOINT LeftHandIndex1
                      {
                        OFFSET -1.34571e-05 -8.3 1.9
                        CHANNELS 6 Xposition Yposition Zposition Zrotation Xrotation Yrotation
                        JOINT LeftHandIndex2
                        {
                          OFFSET 1.65327e-05 -4.5 0
                          CHANNELS 6 Xposition Yposition Zposition Zrotation Xrotation Yrotation
                          JOINT LeftHandIndex3
                          {
                            OFFSET -1.1254e-05 -3.4 0
                            CHANNELS 6 Xposition Yposition Zposition Zrotation Xrotation Yrotation
                            End Site
                            {
                              OFFSET 0 -2.6 0
                            }
                          }
                        }
                      }
                    }
                    JOINT LeftHandMiddle
                    {
                      OFFSET -0.249993 -2.2 0.4
                      CHANNELS 6 Xposition Yposition Zposition Zrotation Xrotation Yrotation
                      JOINT LeftHandMiddle1
                      {
                        OFFSET 0 -8.3 1
                        CHANNELS 6 Xposition Yposition Zposition Zrotation Xrotation Yrotation
                        JOINT LeftHandMiddle2
                        {
                          OFFSET 0 -4.64999 0
                          CHANNELS 6 Xposition Yposition Zposition Zrotation Xrotation Yrotation
                          JOINT LeftHandMiddle3
                          {
                            OFFSET -1.15423e-05 -3.3 0
                            CHANNELS 6 Xposition Yposition Zposition Zrotation Xrotation Yrotation
                            End Site
                            {
                              OFFSET 0 -2.7 0
                            }
                          }
                        }
                      }
                    }
                    JOINT LeftHandRing
                    {
                      OFFSET -0.499994 -2.15001 -0.799996
                      CHANNELS 6 Xposition Yposition Zposition Zrotation Xrotation Yrotation
                      JOINT LeftHandRing1
                      {
                        OFFSET -1.10414e-05 -7.75 -0.200004
                        CHANNELS 6 Xposition Yposition Zposition Zrotation Xrotation Yrotation
                        JOINT LeftHandRing2
                        {
                          OFFSET 0 -3.8 0
                          CHANNELS 6 Xposition Yposition Zposition Zrotation Xrotation Yrotation
                          JOINT LeftHandRing3
                          {
                            OFFSET 0 -3.4 0
                            CHANNELS 6 Xposition Yposition Zposition Zrotation Xrotation Yrotation
                            End Site
                            {
                              OFFSET 0 -2.6 0
                            }
                          }
                        }
                      }
                    }
                    JOINT LeftHandPinky
                    {
                      OFFSET -0.74999 -1.75 -1.85
                      CHANNELS 6 Xposition Yposition Zposition Zrotation Xrotation Yrotation
                      JOINT LeftHandPinky1
                      {
                        OFFSET 0 -7.15 -1
                        CHANNELS 6 Xposition Yposition Zposition Zrotation Xrotation Yrotation
                        JOINT LeftHandPinky2
                        {
                          OFFSET 0 -3 0
                          CHANNELS 6 Xposition Yposition Zposition Zrotation Xrotation Yrotation
                          JOINT LeftHandPinky3
                          {
                            OFFSET 0 -2.35 0
                            CHANNELS 6 Xposition Yposition Zposition Zrotation Xrotation Yrotation
                            End Site
                            {
                              OFFSET 0 -2.1 0
                            }
                          }
                        }
                      }
                    }
                  }
                }
              }
            }
          }
          JOINT RightShoulder
          {
            OFFSET -5 17 0
            CHANNELS 6 Xposition Yposition Zposition Zrotation Xrotation Yrotation
            JOINT RightShoulder2
            {
              OFFSET -6.45 0 0
              CHANNELS 6 Xposition Yposition Zposition Zrotation Xrotation Yrotation
              JOINT RightArm
              {
                OFFSET -6.45 2.64135e-05 2.12243e-05
                CHANNELS 6 Xposition Yposition Zposition Zrotation Xrotation Yrotation
                JOINT RightForeArm
                {
                  OFFSET 1.22758e-05 -32.4 -2
                  CHANNELS 6 Xposition Yposition Zposition Zrotation Xrotation Yrotation
                  JOINT RightHand
                  {
                    OFFSET 0 -25.65 2
                    CHANNELS 6 Xposition Yposition Zposition Zrotation Xrotation Yrotation
                    JOINT RightHandThumb1
                    {
                      OFFSET 0.499991 -1.5 2.65
                      CHANNELS 6 Xposition Yposition Zposition Zrotation Xrotation Yrotation
                      JOINT RightHandThumb2
                      {
                        OFFSET 1.45317e-05 -3.8 3.7
                        CHANNELS 6 Xposition Yposition Zposition Zrotation Xrotation Yrotation
                        JOINT RightHandThumb3
                        {
                          OFFSET 0 -3 2.7
                          CHANNELS 6 Xposition Yposition Zposition Zrotation Xrotation Yrotation
                          End Site
                          {
                            OFFSET 0 -2.3 1.8
                          }
                        }
                      }
                    }
                    JOINT RightHandIndex
                    {
                      OFFSET 0 -1.9 1.6
                      CHANNELS 6 Xposition Yposition Zposition Zrotation Xrotation Yrotation
                      JOINT RightHandIndex1
                      {
                        OFFSET 1.12382e-05 -8.3 1.9
                        CHANNELS 6 Xposition Yposition Zposition Zrotation Xrotation Yrotation
                        JOINT RightHandIndex2
                        {
                          OFFSET -1.32953e-05 -4.5 0
                          CHANNELS 6 Xposition Yposition Zposition Zrotation Xrotation Yrotation
                          JOINT RightHandIndex3
                          {
                            OFFSET 1.15924e-05 -3.4 0
                            CHANNELS 6 Xposition Yposition Zposition Zrotation Xrotation Yrotation
                            End Site
                            {
                              OFFSET 0 -2.6 0
                            }
                          }
                        }
                      }
                    }
                    JOINT RightHandMiddle
                    {
                      OFFSET 0.249992 -2.2 0.400002
                      CHANNELS 6 Xposition Yposition Zposition Zrotation Xrotation Yrotation
                      JOINT RightHandMiddle1
                      {
                        OFFSET 0 -8.3 1
                        CHANNELS 6 Xposition Yposition Zposition Zrotation Xrotation Yrotation
                        JOINT RightHandMiddle2
                        {
                          OFFSET 0 -4.64999 0
                          CHANNELS 6 Xposition Yposition Zposition Zrotation Xrotation Yrotation
                          JOINT RightHandMiddle3
                          {
                            OFFSET 1.44298e-05 -3.3 0
                            CHANNELS 6 Xposition Yposition Zposition Zrotation Xrotation Yrotation
                            End Site
                            {
                              OFFSET 0 -2.7 0
                            }
                          }
                        }
                      }
                    }
                    JOINT RightHandRing
                    {
                      OFFSET 0.499996 -2.15001 -0.799996
                      CHANNELS 6 Xposition Yposition Zposition Zrotation Xrotation Yrotation
                      JOINT RightHandRing1
                      {
                        OFFSET 0 -7.75 -0.200001
                        CHANNELS 6 Xposition Yposition Zposition Zrotation Xrotation Yrotation
                        JOINT RightHandRing2
                        {
                          OFFSET 0 -3.8 0
                          CHANNELS 6 Xposition Yposition Zposition Zrotation Xrotation Yrotation
                          JOINT RightHandRing3
                          {
                            OFFSET 0 -3.4 0
                            CHANNELS 6 Xposition Yposition Zposition Zrotation Xrotation Yrotation
                            End Site
                            {
                              OFFSET 0 -2.6 0
                            }
                          }
                        }
                      }
                    }
                    JOINT RightHandPinky
                    {
                      OFFSET 0.749992 -1.75001 -1.85
                      CHANNELS 6 Xposition Yposition Zposition Zrotation Xrotation Yrotation
                      JOINT RightHandPinky1
                      {
                        OFFSET 0 -7.15 -0.999996
                        CHANNELS 6 Xposition Yposition Zposition Zrotation Xrotation Yrotation
                        JOINT RightHandPinky2
                        {
                          OFFSET 0 -3 0
                          CHANNELS 6 Xposition Yposition Zposition Zrotation Xrotation Yrotation
                          JOINT RightHandPinky3
                          {
                            OFFSET 0 -2.35 0
                            CHANNELS 6 Xposition Yposition Zposition Zrotation Xrotation Yrotation
                            End Site
                            {
                              OFFSET 0 -2.1 0
                            }
                          }
                        }
                      }
                    }
                  }
                }
              }
            }
          }
        }
      }
    }
  }
  JOINT LeftUpLeg
  {
    OFFSET 8 0 0
    CHANNELS 6 Xposition Yposition Zposition Zrotation Xrotation Yrotation
    JOINT LeftLeg
    {
      OFFSET 0 -45 -1.00002
      CHANNELS 6 Xposition Yposition Zposition Zrotation Xrotation Yrotation
      JOINT LeftFoot
      {
        OFFSET 0 -41 -2
        CHANNELS 6 Xposition Yposition Zposition Zrotation Xrotation Yrotation
        JOINT LeftToeBase
        {
          OFFSET 0 -7.5 12.5
          CHANNELS 6 Xposition Yposition Zposition Zrotation Xrotation Yrotation
          JOINT LeftFootToe
          {
            OFFSET 0 0 4
            CHANNELS 6 Xposition Yposition Zposition Zrotation Xrotation Yrotation
            End Site
            {
              OFFSET 0 0 0
            }
          }
        }
      }
    }
  }
  JOINT RightUpLeg
  {
    OFFSET -8 0 0
    CHANNELS 6 Xposition Yposition Zposition Zrotation Xrotation Yrotation
    JOINT RightLeg
    {
      OFFSET 0 -45 -1.00002
      CHANNELS 6 Xposition Yposition Zposition Zrotation Xrotation Yrotation
      JOINT RightFoot
      {
        OFFSET -1.1015e-05 -41 -2.00002
        CHANNELS 6 Xposition Yposition Zposition Zrotation Xrotation Yrotation
        JOINT RightToeBase
        {
          OFFSET 0 -7.5 12.5
          CHANNELS 6 Xposition Yposition Zposition Zrotation Xrotation Yrotation
          JOINT RightFootToe
          {
            OFFSET 0 0 4
            CHANNELS 6 Xposition Yposition Zposition Zrotation Xrotation Yrotation
            End Site
            {
              OFFSET 0 0 0
            }
          }
        }
      }
    }
  }
}
MOTION
Frames:	4
Frame Time:	0.0111111
0 93.5 0 0 0 -0 0 8 0 0 0 -0 0 8 0 0 0 -0 0 8 0 0 0 -0 0 8 0 0 0 -0 0 17 0 0 0 -0 0 10.8 0 0 0 -0 5 17 0 0 0 -0 6.45 0 0 0 0 -0 6.45 0 0 90.0002 0 -0 0 -32.4 -2 0 0 -0 0 -25.65 2 0 0 -0 -0.5 -1.5 2.65 0 0 -0 0 -3.8 3.7 0 0 -0 0 -3 2.7 0.00446675 0 -0.00748895 -2.84217e-14 -1.9 1.6 0 0 -0 2.84217e-14 -8.3 1.9 0 0 -0 0 -4.5 0 5.521e-08 -0.000668287 0.00473345 -2.84217e-14 -3.4 4.44089e-16 -1.34243e-20 0 0.000868268 -0.25 -2.2 0.4 0 0 -0 2.84217e-14 -8.3 1 0 0 -0 0 -4.65 0 -3.61276e-07 -0.00699722 -0.00295826 0 -3.3 2.22045e-16 2.40287e-20 0 0.00332691 -0.5 -2.15 -0.8 0 0 -0 0 -7.75 -0.2 0 0 -0 2.84217e-14 -3.8 0 1.19181e-07 -0.0020887 0.00326928 2.84217e-14 -3.4 -1.11022e-16 -1.28826e-07 0.000962879 0.00766577 -0.75 -1.75 -1.85 0 0 -0 0 -7.15 -1 0 0 -0 0 -3 0 -4.82033e-07 -0.00620155 -0.00445347 0 -2.35 4.44089e-16 -5.05002e-08 0.00065833 0.00439513 -5 17 0 0 0 -0 -6.45 0 0 0 0 -0 -6.45 0 0 -90.0002 0 -0 0 -32.4 -2 0 0 -0 0 -25.65 2 0 0 -0 0.5 -1.5 2.65 0 0 -0 0 -3.8 3.7 0 0 -0 0 -3 2.7 0 0 -0 2.84217e-14 -1.9 1.6 0 0 -0 -2.84217e-14 -8.3 1.9 0 0 -0 0 -4.5 0 -0 -0.00600917 -0 -2.84217e-14 -3.4 0 0 0 -0 0.25 -2.2 0.4 0 0 -0 -2.84217e-14 -8.3 1 0 0 -0 0 -4.65 0 2.42657e-20 0 -0.00316075 0 -3.3 0 2.42657e-20 1.48106e-24 7.76503e-19 0.5 -2.15 -0.8 0 0 -0 0 -7.75 -0.2 0 0 -0 -2.84217e-14 -3.8 0 0 0 -0 0 -3.4 0 0 0 -0.00127708 0.75 -1.75 -1.85 0 0 -0 0 -7.15 -1 0 0 -0 0 -3 0 -4.35101e-08 -0.00406683 -0.000612995 0 -2.35 0 2.59176e-07 -0.00457326 0.00324707 8 0 0 0 0 -0 0 -45 -1 0 0 -0 0 -41 -2 0 0 -0 0 -7.5 12.5 0 0 -0 0 0 4 -0 0 0.00748635 -8 0 0 0 0 -0 0 -45 -1 0 0 -0 0 -41 -2 0 0 -0 0 -7.5 12.5 0 0 -0 0 0 4 -0 0 0.00174016 
-54.2009 27.3849 -73.5443 6.11839 10.3878 57.36 0 8 0 -6.35852 10.3868 -12.8414 1.42109e-14 8 0 -5.6997 14.3764 14.4967 0 8 1.42109e-14 -1.7804 3.47531 7.20239 0 8 -1.42109e-14 -0.623408 2.99547 3.57375 0 17 0 -0.307262 -6.38885 1.60822 0 10.8 0 -0.439122 -14.9528 3.76221 5 17 0 -7.50659 -5.99897 14.6717 6.45 1.42109e-14 0 -0.702011 6.07464 -2.81233 6.45 7.10543e-15 1.42109e-14 25.3667 -67.4826 -25.3082 1.42109e-14 -32.4 -2 -90.9356 -59.0188 -68.2667 0 -25.65 2 10.4621 52.2939 -39.8887 -0.5 -1.5 2.65 -3.6895 -13.8876 9.23748 0 -3.8 3.7 0.0959297 6.55243 -0.0462676 1.77636e-15 -3 2.7 0.00679744 17.2871 -0.00784325 3.55271e-15 -1.9 1.6 -1.59028e-15 -3.18055e-15 3.18055e-15 7.10543e-15 -8.3 1.9 -56.6225 14.7612 9.07515 0 -4.5 0 -32.351 -0.000668287 0.00473345 0 -3.4 -7.10543e-15 -23.4994 0 0.000868268 -0.25 -2.2 0.4 -1.59028e-15 -3.18055e-15 3.18055e-15 -1.77636e-15 -8.3 1 -66.3836 9.57967 9.22799 -7.10543e-15 -4.65 0 -43.3348 -0.00699722 -0.00295826 0 -3.3 0 -30.1452 3.18055e-15 0.00332691 -0.5 -2.15 -0.8 -1.59028e-15 -3.18055e-15 3.18055e-15 3.55271e-15 -7.75 -0.2 -66.8618 9.35299 10.6643 0 -3.8 0 -53.4905 -0.0020887 0.00326928 -1.42109e-14 -3.4 -1.42109e-14 -36.9643 0.000962879 0.00766577 -0.75 -1.75 -1.85 -1.59028e-15 -3.18055e-15 3.18055e-15 3.55271e-15 -7.15 -1 -82.0698 4.2373 13.8624 0 -3 7.10543e-15 -31.9705 -0.00620155 -0.00445347 7.10543e-15 -2.35 7.10543e-15 -23.2725 0.00065833 0.00439513 -5 17 1.42109e-14 6.18674 -9.80871 -4.69894 -6.45 1.42109e-14 0 1.2095 5.59021 1.81749 -6.45 -7.10543e-15 0 -33.2103 -54.1674 20.5017 -3.55271e-15 -32.4 -2 8.56671 -51.7459 -15.9291 0 -25.65 2 -23.4292 -3.7787 -1.57001 0.5 -1.5 2.65 1.81836 -24.1631 2.2626 0 -3.8 3.7 -0.00535958 23.8976 0.0505141 0 -3 2.7 0.0886676 28.852 -0.0539388 -3.55271e-15 -1.9 1.6 3.18055e-15 1.98785e-16 -7.95139e-16 0 -8.3 1.9 14.5053 27.6514 -4.09492 0 -4.5 3.55271e-15 62.463 -0.00600916 0.123232 0 -3.4 -3.55271e-15 44.2766 0.0761456 0.0825668 0.25 -2.2 0.4 3.18055e-15 1.98785e-16 -7.95139e-16 3.55271e-15 -8.3 1 60.3719 22.3777 -16.4257 0 -4.65 -3.55271e-15 83.5491 -0.0135418 -0.00316075 3.55271e-15 -3.3 -3.55271e-15 72.6758 -0.0235675 0.02261 0.5 -2.15 -0.8 3.18055e-15 1.98785e-16 -7.95139e-16 -3.55271e-15 -7.75 -0.2 78.3033 11.0823 -16.3734 0 -3.8 0 55.4101 0.0278433 0.0202244 1.77636e-15 -3.4 0 38.396 0.0259496 -0.00127708 0.75 -1.75 -1.85 3.18055e-15 1.98785e-16 -7.95139e-16 -7.10543e-15 -7.15 -1 74.7369 10.3414 -15.6548 0 -3 0 73.9012 -0.00406683 -0.000612995 0 -2.35 0 56.6908 -0.00457326 0.00324707 8 0 0 110.876 -54.3396 117.194 0 -45 -1 176.163 42.0273 -177.815 -1.42109e-14 -41 -2 -3.45687 -29.8045 -41.6306 -7.10543e-15 -7.5 12.5 2.69403e-36 -4.85314e-20 3.18055e-15 -7.10543e-15 -1.38778e-17 4 -1.92069 3.84304 0.00750322 -8 0 0 -96.0037 -75.0962 -85.7688 -3.55271e-15 -45 -1 176.8 16.9723 177.749 -7.10543e-15 -41 -2 1.41187 -19.3379 0.518234 -7.10543e-15 -7.5 12.5 4.66128e-15 -55.6929 5.643e-15 -7.10543e-15 0 4 2.38078 55.6973 0.00308778 
-54.2025 27.4065 -73.5918 6.17384 10.4722 57.3603 -7.10543e-15 8 -1.42109e-14 -6.29668 10.424 -12.8724 0 8 -1.42109e-14 -5.65332 14.5071 14.5616 7.10543e-15 8 -1.42109e-14 -1.80084 3.49551 7.21939 -7.10543e-15 8 0 -0.618451 2.99548 3.52804 0 17 -1.42109e-14 -0.312243 -6.33904 1.5897 0 10.8 -1.42109e-14 -0.456433 -14.8359 3.71683 5 17 0 -7.53207 -6.08766 15.0371 6.45 0 -7.10543e-15 -0.644363 5.99829 -2.72618 6.45 0 0 24.0534 -67.6061 -26.564 -1.42109e-14 -32.4 -2 -91.1255 -58.9107 -68.6675 1.77636e-15 -25.65 2 10.2182 52.3364 -39.5471 -0.5 -1.5 2.65 -3.6863 -13.8662 9.25399 1.77636e-15 -3.8 3.7 0.0958535 6.51653 -0.046294 -3.55271e-15 -3 2.7 0.0067973 17.2861 -0.0078432 0 -1.9 1.6 -1.59028e-15 -3.18055e-15 3.18055e-15 0 -8.3 1.9 -56.5838 14.7648 9.0691 0 -4.5 0 -32.2776 -0.000668287 0.00473345 7.10543e-15 -3.4 0 -23.4556 3.18055e-15 0.000868268 -0.25 -2.2 0.4 -1.59028e-15 -3.18055e-15 3.18055e-15 -1.77636e-15 -8.3 1 -66.369 9.57737 9.22241 0 -4.65 -7.10543e-15 -43.2575 -0.00699722 -0.00295826 7.10543e-15 -3.3 -7.10543e-15 -30.0969 -3.18055e-15 0.00332691 -0.5 -2.15 -0.8 -1.59028e-15 -3.18055e-15 3.18055e-15 -3.55271e-15 -7.75 -0.2 -66.8352 9.36003 10.6607 0 -3.8 7.10543e-15 -53.3923 -0.0020887 0.00326928 0 -3.4 0 -36.8927 0.000962879 0.00766577 -0.75 -1.75 -1.85 -1.59028e-15 -3.18055e-15 3.18055e-15 3.55271e-15 -7.15 -1 -82.0353 4.2463 13.853 0 -3 0 -31.9398 -0.00620155 -0.00445347 0 -2.35 7.10543e-15 -23.2542 0.00065833 0.00439513 -5 17 -1.42109e-14 6.02217 -9.76019 -4.58472 -6.45 0 0 1.23693 5.56658 1.85672 -6.45 0 0 -31.8288 -55.3049 20.902 0 -32.4 -2 7.24403 -49.9916 -17.5754 -7.10543e-15 -25.65 2 -24.3172 -5.01766 -3.08292 0.5 -1.5 2.65 2.19422 -24.2107 2.49061 0 -3.8 3.7 0.00906809 23.4101 0.0409632 0 -3 2.7 0.0866242 29.2771 -0.0564687 0 -1.9 1.6 3.18055e-15 1.49089e-16 4.96962e-16 -3.55271e-15 -8.3 1.9 14.7213 27.7782 -4.17408 -7.10543e-15 -4.5 0 63.452 -0.00600915 0.156218 0 -3.4 0 45.2217 0.10276 0.105315 0.25 -2.2 0.4 3.18055e-15 1.49089e-16 4.96962e-16 0 -8.3 1 60.7871 22.2628 -16.4866 0 -4.65 -3.55271e-15 83.3872 -0.0114501 -0.00316075 0 -3.3 -3.55271e-15 72.3362 -0.018951 0.0189007 0.5 -2.15 -0.8 3.18055e-15 1.49089e-16 4.96962e-16 0 -7.75 -0.2 78.652 10.8798 -16.3174 -7.10543e-15 -3.8 -3.55271e-15 55.8068 0.0250143 0.0169954 -3.55271e-15 -3.4 0 38.6979 0.0231924 -0.00127708 0.75 -1.75 -1.85 3.18055e-15 1.49089e-16 4.96962e-16 0 -7.15 -1 75.4282 10.1295 -15.7699 0 -3 3.55271e-15 73.8777 -0.00212067 -0.000612995 0 -2.35 0 56.6596 -0.00235663 0.00174578 8 -3.55271e-15 -1.42109e-14 110.831 -54.4386 117.234 0 -45 -1 176.207 42.0462 -177.818 0 -41 -2 -3.30381 -29.2866 -41.5341 0 -7.5 12.5 7.66637e-17 -0.485792 3.18067e-15 0 0 4 -1.66685 3.85103 0.00750329 -8 -3.55271e-15 1.42109e-14 -96.6363 -74.885 -86.2566 0 -45 -1 176.803 17.0006 177.909 1.06581e-14 -41 -2 1.41156 -19.3794 0.719481 1.42109e-14 -7.5 12.5 1.0989e-14 -55.5008 5.61544e-15 -7.10543e-15 -2.77556e-17 4 2.09758 55.5064 0.00307279 
-54.2021 27.4239 -73.64 6.22834 10.5595 57.3615 0 8 0 -6.24133 10.4454 -12.8945 0 8 0 -5.60889 14.6334 14.628 0 8 0 -1.81908 3.5148 7.24441 0 8 0 -0.616074 2.99767 3.48958 0 17 -1.42109e-14 -0.312778 -6.28637 1.55921 0 10.8 -1.42109e-14 -0.465383 -14.7121 3.64385 5 17 0 -7.54504 -6.20354 15.3465 6.45 0 0 -0.594675 5.90918 -2.64464 6.45 0 1.42109e-14 22.7311 -67.6674 -27.8345 0 -32.4 -2 -91.2876 -58.7965 -69.0575 -8.88178e-16 -25.65 2 9.97059 52.3627 -39.2053 -0.5 -1.5 2.65 -3.67938 -13.8435 9.27423 -3.55271e-15 -3.8 3.7 0.0958193 6.47448 -0.0462901 0 -3 2.7 0.00681999 17.2886 -0.00784331 0 -1.9 1.6 3.18055e-15 -3.18055e-15 -3.18055e-15 -3.55271e-15 -8.3 1.9 -56.5157 14.77 9.05786 0 -4.5 0 -32.2273 -0.000668287 0.00473345 0 -3.4 7.10543e-15 -23.4256 -3.18055e-15 0.000868268 -0.25 -2.2 0.4 3.18055e-15 -3.18055e-15 -3.18055e-15 0 -8.3 1 -66.3367 9.57572 9.21337 0 -4.65 7.10543e-15 -43.1732 -0.00699722 -0.00295826 0 -3.3 0 -30.0442 0 0.00332691 -0.5 -2.15 -0.8 3.18055e-15 -3.18055e-15 -3.18055e-15 0 -7.75 -0.2 -66.7914 9.3689 10.6535 7.10543e-15 -3.8 -7.10543e-15 -53.256 -0.0020887 0.00326928 -7.10543e-15 -3.4 0 -36.7937 0.000962879 0.00766577 -0.75 -1.75 -1.85 3.18055e-15 -3.18055e-15 -3.18055e-15 3.55271e-15 -7.15 -1 -81.9795 4.26302 13.84 0 -3 0 -31.9162 -0.00620155 -0.00445347 0 -2.35 0 -23.2401 0.00065833 0.00439513 -5 17 -1.42109e-14 5.86559 -9.72392 -4.51731 -6.45 0 0 1.26017 5.54894 1.89613 -6.45 0 -1.42109e-14 -30.4026 -56.3118 21.4031 0 -32.4 -2 6.56778 -48.158 -18.5006 0 -25.65 2 -25.4382 -6.31534 -4.82913 0.5 -1.5 2.65 2.38113 -24.3409 2.60315 -1.06581e-14 -3.8 3.7 0.0190179 22.8683 0.0355952 0 -3 2.7 0.0972147 29.8842 -0.0668883 -3.55271e-15 -1.9 1.6 3.18055e-15 -2.78299e-15 3.97569e-16 -7.10543e-15 -8.3 1.9 14.9692 27.8986 -4.26107 7.10543e-15 -4.5 0 64.4873 -0.00600915 0.146647 7.10543e-15 -3.4 0 46.2045 0.0983437 0.102298 0.25 -2.2 0.4 3.18055e-15 -2.78299e-15 3.97569e-16 0 -8.3 1 61.119 22.1606 -16.5305 0 -4.65 0 83.2545 -0.0106025 -0.00316075 0 -3.3 0 72.0626 -0.0186622 0.0177469 0.5 -2.15 -0.8 3.18055e-15 -2.78299e-15 3.97569e-16 7.10543e-15 -7.75 -0.2 79.0237 10.6799 -16.3065 0 -3.8 -3.55271e-15 56.1012 0.0338221 0.0227265 1.77636e-15 -3.4 7.10543e-15 38.9267 0.0315044 -0.00127708 0.75 -1.75 -1.85 3.18055e-15 -2.78299e-15 3.97569e-16 0 -7.15 -1 75.8224 9.98082 -15.836 -7.10543e-15 -3 3.55271e-15 74.0759 0.0147384 0.00609442 0 -2.35 -3.55271e-15 56.9314 0.0180417 -0.0124584 8 0 0 110.74 -54.5649 117.215 1.42109e-14 -45 -1 176.266 42.0811 -177.818 0 -41 -2 -3.35029 -29.304 -41.5397 7.10543e-15 -7.5 12.5 7.24324e-17 -0.485656 -3.18067e-15 0 0 4 -1.64235 3.85973 0.00750337 -8 0 0 -97.1857 -74.6523 -86.6664 3.55271e-15 -45 -1 176.81 17.0194 178.074 0 -41 -2 1.2265 -19.4435 0.608937 0 -7.5 12.5 9.19456e-15 -55.3232 1.11805e-14 0 -2.77556e-17 4 2.10215 55.3296 0.00305907 
